<?xml version="1.0" encoding="UTF-8" standalone="no"?>
<svg
   xmlns:dc="http://purl.org/dc/elements/1.1/"
   xmlns:cc="http://creativecommons.org/ns#"
   xmlns:rdf="http://www.w3.org/1999/02/22-rdf-syntax-ns#"
   xmlns:svg="http://www.w3.org/2000/svg"
   xmlns="http://www.w3.org/2000/svg"
   xmlns:sodipodi="http://sodipodi.sourceforge.net/DTD/sodipodi-0.dtd"
   xmlns:inkscape="http://www.inkscape.org/namespaces/inkscape"
   version="1.1"
   width="24"
   height="24"
   viewBox="0 0 24 24"
   id="svg3773"
   sodipodi:docname="weather-cloudy-white.svg"
   inkscape:version="0.92.5 (2060ec1f9f, 2020-04-08)">
  <metadata
     id="metadata3779">
    <rdf:RDF>
      <cc:Work
         rdf:about="">
        <dc:format>image/svg+xml</dc:format>
        <dc:type
           rdf:resource="http://purl.org/dc/dcmitype/StillImage" />
        <dc:title></dc:title>
      </cc:Work>
    </rdf:RDF>
  </metadata>
  <defs
     id="defs3777" />
  <sodipodi:namedview
     pagecolor="#ffffff"
     bordercolor="#666666"
     borderopacity="1"
     objecttolerance="10"
     gridtolerance="10"
     guidetolerance="10"
     inkscape:pageopacity="0"
     inkscape:pageshadow="2"
     inkscape:window-width="2560"
     inkscape:window-height="1286"
     id="namedview3775"
     showgrid="false"
     inkscape:zoom="45.958333"
     inkscape:cx="6.1359927"
     inkscape:cy="12"
     inkscape:window-x="0"
     inkscape:window-y="25"
     inkscape:window-maximized="1"
     inkscape:current-layer="svg3773" />
  <path
     d="M6,19A5,5 0 0,1 1,14A5,5 0 0,1 6,9C7,6.65 9.3,5 12,5C15.43,5 18.24,7.66 18.5,11.03L19,11A4,4 0 0,1 23,15A4,4 0 0,1 19,19H6M19,13H17V12A5,5 0 0,0 12,7C9.5,7 7.45,8.82 7.06,11.19C6.73,11.07 6.37,11 6,11A3,3 0 0,0 3,14A3,3 0 0,0 6,17H19A2,2 0 0,0 21,15A2,2 0 0,0 19,13Z"
     id="path3771"
     style="fill:#f4f4f4;fill-opacity:1" />
</svg>
